<svg width="605" height="1392" viewBox="0 0 605 1392" fill="none" xmlns="http://www.w3.org/2000/svg">
<mask id="mask0_597_445" style="mask-type:luminance" maskUnits="userSpaceOnUse" x="0" y="0" width="605" height="1392">
<path d="M0.279999 0.00999832H604.72C604.87 0.00999832 605 0.130001 605 0.290001V1391.06C605 1391.21 604.88 1391.34 604.72 1391.34H0.279999C0.129999 1391.34 0 1391.22 0 1391.06V0.279999C0 0.129999 0.119999 0 0.279999 0V0.00999832Z" fill="white"/>
</mask>
<g mask="url(#mask0_597_445)">
<path fill-rule="evenodd" clip-rule="evenodd" d="M231.4 831.76L134.69 801.95C116.58 796.37 97.2002 806.62 91.6202 824.72C86.0402 842.83 96.2902 862.21 114.39 867.79L211.1 897.6C229.21 903.18 248.59 892.93 254.17 874.83C259.75 856.72 249.5 837.34 231.4 831.76Z" fill="#29319F"/>
<path fill-rule="evenodd" clip-rule="evenodd" d="M41.1302 831.76L-55.5798 801.95C-73.6898 796.37 -93.0698 806.62 -98.6498 824.72C-104.23 842.83 -93.9798 862.21 -75.8798 867.79L20.8302 897.6C38.9402 903.18 58.3202 892.93 63.9002 874.83C69.4802 856.72 59.2302 837.34 41.1302 831.76Z" fill="#29319F"/>
<path fill-rule="evenodd" clip-rule="evenodd" d="M387.12 935.17L290.41 905.36C272.3 899.78 252.92 910.03 247.34 928.13C241.76 946.24 252.01 965.62 270.11 971.2L366.82 1001.01C384.93 1006.59 404.31 996.34 409.89 978.24C415.47 960.13 405.22 940.75 387.12 935.17Z" fill="#29319F"/>
<path fill-rule="evenodd" clip-rule="evenodd" d="M196.84 935.17L100.13 905.36C82.0202 899.78 62.6402 910.03 57.0602 928.13C51.4802 946.24 61.7302 965.62 79.8302 971.2L176.54 1001.01C194.65 1006.59 214.03 996.34 219.61 978.24C225.19 960.13 214.94 940.75 196.84 935.17Z" fill="#29319F"/>
<path fill-rule="evenodd" clip-rule="evenodd" d="M6.57014 935.17L-90.1399 905.36C-108.25 899.78 -127.63 910.03 -133.21 928.13C-138.79 946.24 -128.54 965.62 -110.44 971.2L-13.7299 1001.01C4.38015 1006.59 23.7601 996.34 29.3401 978.24C34.9201 960.13 24.6701 940.75 6.57014 935.17Z" fill="#29319F"/>
<path fill-rule="evenodd" clip-rule="evenodd" d="M231.4 1058.23L134.69 1028.42C116.58 1022.84 97.2002 1033.09 91.6202 1051.19C86.0402 1069.3 96.2902 1088.68 114.39 1094.26L211.1 1124.07C229.21 1129.65 248.59 1119.4 254.17 1101.3C259.75 1083.19 249.5 1063.81 231.4 1058.23Z" fill="#29319F"/>
<path fill-rule="evenodd" clip-rule="evenodd" d="M41.1302 1058.23L-55.5798 1028.42C-73.6898 1022.84 -93.0698 1033.09 -98.6498 1051.19C-104.23 1069.3 -93.9798 1088.68 -75.8798 1094.26L20.8302 1124.07C38.9402 1129.65 58.3202 1119.4 63.9002 1101.3C69.4802 1083.19 59.2302 1063.81 41.1302 1058.23Z" fill="#29319F"/>
<path fill-rule="evenodd" clip-rule="evenodd" d="M387.12 1161.64L290.41 1131.83C272.3 1126.25 252.92 1136.5 247.34 1154.6C241.76 1172.71 252.01 1192.09 270.11 1197.67L366.82 1227.48C384.93 1233.06 404.31 1222.81 409.89 1204.71C415.47 1186.6 405.22 1167.22 387.12 1161.64Z" fill="#29319F"/>
<path fill-rule="evenodd" clip-rule="evenodd" d="M196.84 1161.64L100.13 1131.83C82.0202 1126.25 62.6402 1136.5 57.0602 1154.6C51.4802 1172.71 61.7302 1192.09 79.8302 1197.67L176.54 1227.48C194.65 1233.06 214.03 1222.81 219.61 1204.71C225.19 1186.6 214.94 1167.22 196.84 1161.64Z" fill="#29319F"/>
<path fill-rule="evenodd" clip-rule="evenodd" d="M6.57014 1161.64L-90.1399 1131.83C-108.25 1126.25 -127.63 1136.5 -133.21 1154.6C-138.79 1172.71 -128.54 1192.09 -110.44 1197.67L-13.7299 1227.48C4.38015 1233.06 23.7601 1222.81 29.3401 1204.71C34.9201 1186.6 24.6701 1167.22 6.57014 1161.64Z" fill="#29319F"/>
<path fill-rule="evenodd" clip-rule="evenodd" d="M231.4 1284.7L134.69 1254.89C116.58 1249.31 97.2002 1259.56 91.6202 1277.66C86.0402 1295.77 96.2902 1315.15 114.39 1320.73L211.1 1350.54C229.21 1356.12 248.59 1345.87 254.17 1327.77C259.75 1309.66 249.5 1290.28 231.4 1284.7Z" fill="#29319F"/>
<path fill-rule="evenodd" clip-rule="evenodd" d="M41.1302 1284.7L-55.5798 1254.89C-73.6898 1249.31 -93.0698 1259.56 -98.6498 1277.66C-104.23 1295.77 -93.9798 1315.15 -75.8798 1320.73L20.8302 1350.54C38.9402 1356.12 58.3202 1345.87 63.9002 1327.77C69.4802 1309.66 59.2302 1290.28 41.1302 1284.7Z" fill="#29319F"/>
<path fill-rule="evenodd" clip-rule="evenodd" d="M387.12 1388.11L290.41 1358.3C272.3 1352.72 252.92 1362.97 247.34 1381.07C241.76 1399.18 252.01 1418.56 270.11 1424.14L366.82 1453.95C384.93 1459.53 404.31 1449.28 409.89 1431.18C415.47 1413.07 405.22 1393.69 387.12 1388.11Z" fill="#29319F"/>
<path fill-rule="evenodd" clip-rule="evenodd" d="M196.84 1388.11L100.13 1358.3C82.0202 1352.72 62.6402 1362.97 57.0602 1381.07C51.4802 1399.18 61.7302 1418.56 79.8302 1424.14L176.54 1453.95C194.65 1459.53 214.03 1449.28 219.61 1431.18C225.19 1413.07 214.94 1393.69 196.84 1388.11Z" fill="#29319F"/>
<path fill-rule="evenodd" clip-rule="evenodd" d="M6.57014 1388.11L-90.1399 1358.3C-108.25 1352.72 -127.63 1362.97 -133.21 1381.07C-138.79 1399.18 -128.54 1418.56 -110.44 1424.14L-13.7299 1453.95C4.38015 1459.53 23.7601 1449.28 29.3401 1431.18C34.9201 1413.07 24.6701 1393.69 6.57014 1388.11Z" fill="#29319F"/>
<path fill-rule="evenodd" clip-rule="evenodd" d="M327.811 698.85L309.4 684.01C305.67 681 300.151 681.59 297.141 685.33C294.131 689.06 294.72 694.58 298.46 697.59L316.87 712.43C320.6 715.44 326.121 714.85 329.131 711.11C332.141 707.38 331.551 701.86 327.811 698.85Z" stroke="#7797FB" stroke-width="0.57" stroke-miterlimit="22.93"/>
<path d="M99.9603 294.09H99.8103C94.9944 294.09 91.0903 297.992 91.0903 302.805C91.0903 307.618 94.9944 311.52 99.8103 311.52H99.9603C104.776 311.52 108.68 307.618 108.68 302.805C108.68 297.992 104.776 294.09 99.9603 294.09Z" stroke="#7797FB" stroke-width="0.57" stroke-miterlimit="22.93"/>
<path d="M509.68 334.01H486.04C481.224 334.01 477.32 337.912 477.32 342.725C477.32 347.538 481.224 351.44 486.04 351.44H509.68C514.496 351.44 518.4 347.538 518.4 342.725C518.4 337.912 514.496 334.01 509.68 334.01Z" stroke="#7797FB" stroke-width="0.57" stroke-miterlimit="22.93"/>
<path d="M192.161 633.73H192.011C187.195 633.73 183.291 637.632 183.291 642.445C183.291 647.258 187.195 651.16 192.011 651.16H192.161C196.976 651.16 200.881 647.258 200.881 642.445C200.881 637.632 196.976 633.73 192.161 633.73Z" stroke="#7797FB" stroke-width="0.57" stroke-miterlimit="22.93"/>
<path d="M514.771 718.28H514.661C511.441 718.28 508.831 720.89 508.831 724.11V724.12C508.831 727.34 511.441 729.95 514.661 729.95H514.771C517.99 729.95 520.601 727.34 520.601 724.12V724.11C520.601 720.89 517.99 718.28 514.771 718.28Z" stroke="#7797FB" stroke-width="0.57" stroke-miterlimit="22.93"/>
<path d="M343.02 563.91H342.87C338.054 563.91 334.15 567.812 334.15 572.625C334.15 577.438 338.054 581.34 342.87 581.34H343.02C347.836 581.34 351.74 577.438 351.74 572.625C351.74 567.812 347.836 563.91 343.02 563.91Z" stroke="#7797FB" stroke-width="0.57" stroke-miterlimit="22.93"/>
<path d="M418.83 441.58H404.03C401.015 441.58 398.57 444.022 398.57 447.035C398.57 450.048 401.015 452.49 404.03 452.49H418.83C421.846 452.49 424.29 450.048 424.29 447.035C424.29 444.022 421.846 441.58 418.83 441.58Z" stroke="#7797FB" stroke-width="0.57" stroke-miterlimit="22.93"/>
<path fill-rule="evenodd" clip-rule="evenodd" d="M581.05 -28.95L484.34 -58.76C466.23 -64.34 446.85 -54.09 441.27 -35.99C435.69 -17.88 445.94 1.49998 464.04 7.07998L560.75 36.89C578.86 42.47 598.24 32.22 603.82 14.12C609.4 -3.99002 599.15 -23.37 581.05 -28.95Z" fill="#29319F"/>
<path fill-rule="evenodd" clip-rule="evenodd" d="M615.62 94.1099L518.91 64.2999C500.8 58.7199 481.42 68.9699 475.84 87.0699C470.26 105.18 480.51 124.56 498.61 130.14L595.32 159.95C613.43 165.53 632.81 155.28 638.39 137.18C643.97 119.07 633.72 99.6899 615.62 94.1099Z" fill="#29319F"/>
<path fill-rule="evenodd" clip-rule="evenodd" d="M425.34 94.1099L328.63 64.2999C310.52 58.7199 291.14 68.9699 285.56 87.0699C279.98 105.18 290.23 124.56 308.33 130.14L405.04 159.95C423.15 165.53 442.53 155.28 448.11 137.18C453.69 119.07 443.44 99.6899 425.34 94.1099Z" fill="#29319F"/>
<path fill-rule="evenodd" clip-rule="evenodd" d="M581.05 197.52L484.34 167.71C466.23 162.13 446.85 172.38 441.27 190.48C435.69 208.59 445.94 227.97 464.04 233.55L560.75 263.36C578.86 268.94 598.24 258.69 603.82 240.59C609.4 222.48 599.15 203.1 581.05 197.52Z" fill="#29319F"/>
<path fill-rule="evenodd" clip-rule="evenodd" d="M615.62 320.58L518.91 290.77C500.8 285.19 481.42 295.44 475.84 313.54C470.26 331.65 480.51 351.03 498.61 356.61L595.32 386.42C613.43 392 632.81 381.75 638.39 363.65C643.97 345.54 633.72 326.16 615.62 320.58Z" fill="#29319F"/>
<path fill-rule="evenodd" clip-rule="evenodd" d="M425.34 320.58L328.63 290.77C310.52 285.19 291.14 295.44 285.56 313.54C279.98 331.65 290.23 351.03 308.33 356.61L405.04 386.42C423.15 392 442.53 381.75 448.11 363.65C453.69 345.54 443.44 326.16 425.34 320.58Z" fill="#29319F"/>
<path fill-rule="evenodd" clip-rule="evenodd" d="M581.05 423.99L484.34 394.18C466.23 388.6 446.85 398.85 441.27 416.95C435.69 435.06 445.94 454.44 464.04 460.02L560.75 489.83C578.86 495.41 598.24 485.16 603.82 467.06C609.4 448.95 599.15 429.57 581.05 423.99Z" fill="#29319F"/>
</g>
</svg>
